# xmcd
#
# Track frame offsets:
#	150
#	19402
#	28932
#	37105
#	44115
#	49042
#	54675
#	63837
#	71090
#	80347
#	93285
#	105152
#	119382
#	131525
#	141125
#	147525
#	152782
#	167700
#	177365
#	184217
#	202477
#	215960
#	227580
#	237027
#	251197
#
# Disc length: 3505 seconds
#
# Revision: 1
# Processed by: cddbd v1.5.1PL0 Copyright (c) Steve Scherf et al.
# Submitted via: CDex 1.50Beta5
#
DISCID=810daf19
DTITLE=真野江津子 - こどものうた みんなのうた-いぬのおまわりさん・ミッキーマウス・マーチ- Disc 2
DYEAR=1997
DGENRE=
TTITLE0=クラウン少女合唱団/ウイ・アー・ザ・ワールド
TTITLE1=クラウン少女合唱団/小さな世界
TTITLE2=クラウン少女合唱団/森のくまさん
TTITLE3=藤本房子/おなかのへるうた
TTITLE4=クラウン少女合唱団/あわてんぼうのうた
TTITLE5=クラウン少女合唱団/とんぼのめがね
TTITLE6=クラウン少女合唱団/めだかの学校
TTITLE7=クラウン少女合唱団/ピクニック
TTITLE8=クラウン少女合唱団/ガチャガチャ・バンド
TTITLE9=クラウン少女合唱団/てんとう虫のサンバ
TTITLE10=クラウン少女合唱団/ドレミの歌
TTITLE11=クラウン少女合唱団/ちいさい秋みつけた
TTITLE12=クラウン少女合唱団/四季の歌
TTITLE13=クラウン少女合唱団/ミッキーマウス・マーチ
TTITLE14=クラウン少女合唱団/ごんべえさんの赤ちゃん
TTITLE15=クラウン少女合唱団/シャベルでホイ
TTITLE16=クラウン少女合唱団/まっかな秋
TTITLE17=クラウン少女合唱団/ねこふんじゃった
TTITLE18=クラウン少女合唱団/こぎつね
TTITLE19=クラウン少女合唱団/大きな古時計
TTITLE20=クラウン少女合唱団/秋の子
TTITLE21=クラウン少女合唱団/エーデルワイス
TTITLE22=クラウン少女合唱団/夕方のお母さん
TTITLE23=クラウン少女合唱団/かあさんの歌
TTITLE24=クラウン少女合唱団/今日の日はさようなら
EXTD=
EXTT0=
EXTT1=
EXTT2=
EXTT3=
EXTT4=
EXTT5=
EXTT6=
EXTT7=
EXTT8=
EXTT9=
EXTT10=
EXTT11=
EXTT12=
EXTT13=
EXTT14=
EXTT15=
EXTT16=
EXTT17=
EXTT18=
EXTT19=
EXTT20=
EXTT21=
EXTT22=
EXTT23=
EXTT24=
PLAYORDER=
